<svg
  width="50"
  height="50"
  xmlns="http://www.w3.org/2000/svg"
  viewBox="0 0 187.47 94.63"
>
  <g fill="#ffffff">
    <polygon points="100.99 45.87 120.42 35.22 120.42 8.22 27.09 59.79 27.09 86.41 71.84 61.56 71.84 46.99 87.44 38.3 100.99 45.87"></polygon>
    <polygon points="0 87.63 12.61 94.54 24.29 88 24.29 36.9 0 23.26 0 87.63"></polygon>
    <polygon points="74.64 48.67 74.64 61.47 135.18 94.63 147.41 87.81 147.41 75.3 88.09 41.2 74.64 48.67"></polygon>
    <polygon points="70.91 32.42 12.05 0 0 6.63 0 20.18 46.43 45.96 70.91 32.42"></polygon>
    <polygon points="123.22 6.73 123.22 58.39 147.41 71.84 147.41 7.1 134.99 0.19 123.22 6.73"></polygon>
    <path d="M177.78,14.27c0-3.41-2.27-5.9-6.61-5.9h-7V25.53h4.21V19.81H171l2.88,5.72h4.69L174.85,19A5.14,5.14,0,0,0,177.78,14.27Zm-6.61,2.06h-2.84v-4h2.84c1.49,0,2.36.7,2.36,1.93C173.53,15.79,172.39,16.33,171.17,16.33Z"></path>
    <path d="M187.47,17.17a17,17,0,0,0-17-17h0a17,17,0,1,0,17,17Zm-16.9,14.09h-.12a14,14,0,1,1,.12,0Z"></path>
  </g>
</svg>
